<svg width="25" height="24" viewBox="0 0 25 24" fill="none" xmlns="http://www.w3.org/2000/svg">
<path d="M12.5 2.70888e-07C8.71001 2.70888e-07 5.33101 1.757 3.13201 4.501L7.08501 11.349C7.24398 10.0246 7.8828 8.80438 8.88063 7.91914C9.87845 7.0339 11.1661 6.54503 12.5 6.545H23.191C22.1854 4.57463 20.6547 2.92058 18.768 1.76557C16.8814 0.610552 14.7122 -0.000469684 12.5 2.70888e-07ZM2.43101 5.47C1.1673 7.41316 0.496354 9.68207 0.500007 12C0.500007 18.012 4.92001 22.991 10.689 23.864L14.642 17.017C13.4157 17.5414 12.0397 17.5979 10.7746 17.1759C9.50939 16.7539 8.44289 15.8826 7.77701 14.727L2.43101 5.47ZM15.773 7.636C16.8411 8.43513 17.5787 9.59846 17.8459 10.9053C18.1132 12.2122 17.8916 13.5717 17.223 14.726L17.225 14.727H17.223L11.879 23.984C12.085 23.994 12.292 24 12.5 24C19.127 24 24.5 18.627 24.5 12C24.5 10.46 24.21 8.989 23.682 7.636H15.773ZM12.5 16.364C11.3426 16.364 10.2326 15.9042 9.41419 15.0858C8.59579 14.2674 8.13601 13.1574 8.13601 12C8.13601 10.8426 8.59579 9.7326 9.41419 8.91419C10.2326 8.09578 11.3426 7.636 12.5 7.636C13.6574 7.636 14.7674 8.09578 15.5858 8.91419C16.4042 9.7326 16.864 10.8426 16.864 12C16.864 13.1574 16.4042 14.2674 15.5858 15.0858C14.7674 15.9042 13.6574 16.364 12.5 16.364Z" fill="white"/>
</svg>
