<svg width="25" height="24" viewBox="0 0 25 24" fill="none" xmlns="http://www.w3.org/2000/svg">
<path d="M9.3241 7.287C9.3321 7.287 9.3281 7.287 9.3241 7.287V7.287ZM6.5241 5.887C6.5301 5.887 6.5271 5.887 6.5241 5.887V5.887ZM23.2781 8.048C22.7731 6.833 21.7481 5.52 20.9451 5.105C21.5991 6.388 21.9781 7.675 22.1221 8.635L22.1241 8.655C20.8101 5.377 18.5801 4.055 16.7581 1.178C16.6671 1.031 16.5741 0.886 16.4851 0.732C16.4387 0.653699 16.3953 0.573639 16.3551 0.492C16.2801 0.345855 16.2224 0.191484 16.1831 0.032C16.1831 0.024537 16.1804 0.017328 16.1754 0.0117807C16.1704 0.00623344 16.1635 0.00274622 16.1561 0.002C16.1492 2.73897e-05 16.142 2.73897e-05 16.1351 0.002L16.1291 0.003C16.1255 0.00415052 16.1222 0.00583643 16.1191 0.008L16.1241 0C13.5391 1.515 12.4671 4.168 12.1921 5.856C11.3931 5.90099 10.6103 6.10033 9.8871 6.443C9.82113 6.47552 9.76958 6.53137 9.74242 6.59972C9.71527 6.66807 9.71444 6.74407 9.7401 6.813C9.7971 6.975 9.9801 7.053 10.1361 6.983C10.7672 6.68559 11.4481 6.50823 12.1441 6.46L12.2111 6.455C12.8713 6.41781 13.533 6.49287 14.1681 6.677L14.2631 6.707C14.4726 6.77134 14.6782 6.84746 14.8791 6.935C14.9591 6.971 15.0391 7.008 15.1171 7.047L15.2241 7.102C15.3493 7.16785 15.472 7.23823 15.5921 7.313C16.4346 7.83416 17.1337 8.55735 17.6261 9.417C17.0061 8.98 15.8931 8.549 14.8231 8.736C19.0061 10.826 17.8831 18.028 12.0861 17.756C11.57 17.7349 11.06 17.6365 10.5731 17.464C10.3888 17.3987 10.2091 17.3211 10.0351 17.232C8.6151 16.497 7.4421 15.111 7.2951 13.426C7.2951 13.426 7.8321 11.426 11.1401 11.426C11.4971 11.426 12.5201 10.428 12.5381 10.139C12.5331 10.044 10.5091 9.239 9.7211 8.462C9.2991 8.046 9.0991 7.846 8.9211 7.695C8.82495 7.61393 8.72447 7.53816 8.6201 7.468C8.35526 6.54061 8.34421 5.55912 8.5881 4.626C7.3931 5.17 6.4641 6.029 5.7881 6.789H5.7821C5.3221 6.205 5.3541 4.279 5.3801 3.876C5.3741 3.851 5.0371 4.052 4.9911 4.082C4.5851 4.372 4.2041 4.698 3.8551 5.056C3.4581 5.459 3.0951 5.895 2.7701 6.359C2.02212 7.41769 1.49124 8.61404 1.2081 9.879C1.2051 9.892 1.0981 10.366 1.0181 10.952C1.0051 11.042 0.992101 11.133 0.981101 11.224C0.94855 11.4452 0.925529 11.6678 0.912101 11.891L0.910101 11.925L0.887101 12.312L0.886101 12.372C0.886101 18.795 6.0931 24 12.5161 24C18.2681 24 23.0431 19.824 23.9791 14.339C23.9991 14.19 24.0141 14.041 24.0311 13.891C24.2631 11.897 24.0061 9.801 23.2781 8.047V8.048Z" fill="white"/>
</svg>
